<svg width="40" height="39" viewBox="0 0 40 39" fill="none" xmlns="http://www.w3.org/2000/svg">
<circle cx="20.2789" cy="19.3629" r="18.8396" stroke="#669999" stroke-width="1.04664"/>
<circle cx="20.2787" cy="19.3629" r="16.7463" fill="#669999" stroke="#669999" stroke-width="1.04664"/>
<g filter="url(#filter0_d_186_18)">
<mask id="path-3-outside-1_186_18" maskUnits="userSpaceOnUse" x="10.9895" y="6.66638" width="18" height="25" fill="black">
<rect fill="white" x="10.9895" y="6.66638" width="18" height="25"/>
<path d="M25.4062 10.487L23.2489 9.99936L25.0516 8.66951H25.3767L26.3667 15.3926L25.7017 15.5256L22.9238 10.8416L23.6626 11.7577C23.111 11.3341 22.5397 11.0238 21.9486 10.8268C21.3576 10.62 20.732 10.5165 20.072 10.5165C18.8111 10.5165 17.8605 10.7973 17.2202 11.3588C16.5898 11.9203 16.2746 12.6689 16.2746 13.6047C16.2746 14.245 16.4125 14.7819 16.6883 15.2153C16.9641 15.6389 17.3434 16.0034 17.8261 16.3088C18.3088 16.6043 18.8555 16.8703 19.4662 17.1067C20.0868 17.3332 20.732 17.5647 21.4019 17.8012C22.0717 18.0376 22.7367 18.3035 23.3967 18.5991C24.0567 18.8946 24.6576 19.2591 25.1994 19.6925C25.751 20.1259 26.1894 20.6726 26.5144 21.3326C26.8494 21.9828 27.0168 22.7906 27.0168 23.7559C27.0168 25.0759 26.6917 26.2038 26.0416 27.1397C25.3914 28.0656 24.5 28.7749 23.3671 29.2674C22.2441 29.7501 20.9635 29.9915 19.5253 29.9915C18.5402 29.9915 17.6586 29.9225 16.8804 29.7846C16.1022 29.6565 15.2895 29.425 14.4423 29.0901L13.1716 23.6968H13.9547L17.7522 29.1492L15.0777 27.45C15.8658 27.8735 16.5701 28.1888 17.1907 28.3956C17.8211 28.5927 18.491 28.6912 19.2002 28.6912C20.3035 28.6912 21.2344 28.5483 21.9929 28.2627C22.7514 27.977 23.3277 27.5534 23.7217 26.9919C24.1158 26.4304 24.3128 25.7359 24.3128 24.9085C24.3128 24.1598 24.1404 23.5392 23.7956 23.0467C23.4508 22.5443 22.9928 22.1306 22.4214 21.8055C21.86 21.4804 21.2443 21.1997 20.5744 20.9632C19.9046 20.7268 19.2397 20.4855 18.5797 20.2392C17.9295 19.9929 17.3138 19.7221 16.7326 19.4265C16.1514 19.131 15.6392 18.7813 15.1959 18.3774C14.7526 17.9637 14.4029 17.4662 14.1468 16.885C13.9005 16.3038 13.7774 15.6094 13.7774 14.8016C13.7774 13.6688 14.0483 12.6886 14.5901 11.8612C15.1417 11.0337 15.92 10.3934 16.9247 9.94026C17.9394 9.48713 19.1362 9.26056 20.5153 9.26056C21.4216 9.26056 22.2589 9.35907 23.0273 9.55608C23.8055 9.74325 24.5985 10.0535 25.4062 10.487Z"/>
</mask>
<path d="M25.4062 10.487L23.2489 9.99936L25.0516 8.66951H25.3767L26.3667 15.3926L25.7017 15.5256L22.9238 10.8416L23.6626 11.7577C23.111 11.3341 22.5397 11.0238 21.9486 10.8268C21.3576 10.62 20.732 10.5165 20.072 10.5165C18.8111 10.5165 17.8605 10.7973 17.2202 11.3588C16.5898 11.9203 16.2746 12.6689 16.2746 13.6047C16.2746 14.245 16.4125 14.7819 16.6883 15.2153C16.9641 15.6389 17.3434 16.0034 17.8261 16.3088C18.3088 16.6043 18.8555 16.8703 19.4662 17.1067C20.0868 17.3332 20.732 17.5647 21.4019 17.8012C22.0717 18.0376 22.7367 18.3035 23.3967 18.5991C24.0567 18.8946 24.6576 19.2591 25.1994 19.6925C25.751 20.1259 26.1894 20.6726 26.5144 21.3326C26.8494 21.9828 27.0168 22.7906 27.0168 23.7559C27.0168 25.0759 26.6917 26.2038 26.0416 27.1397C25.3914 28.0656 24.5 28.7749 23.3671 29.2674C22.2441 29.7501 20.9635 29.9915 19.5253 29.9915C18.5402 29.9915 17.6586 29.9225 16.8804 29.7846C16.1022 29.6565 15.2895 29.425 14.4423 29.0901L13.1716 23.6968H13.9547L17.7522 29.1492L15.0777 27.45C15.8658 27.8735 16.5701 28.1888 17.1907 28.3956C17.8211 28.5927 18.491 28.6912 19.2002 28.6912C20.3035 28.6912 21.2344 28.5483 21.9929 28.2627C22.7514 27.977 23.3277 27.5534 23.7217 26.9919C24.1158 26.4304 24.3128 25.7359 24.3128 24.9085C24.3128 24.1598 24.1404 23.5392 23.7956 23.0467C23.4508 22.5443 22.9928 22.1306 22.4214 21.8055C21.86 21.4804 21.2443 21.1997 20.5744 20.9632C19.9046 20.7268 19.2397 20.4855 18.5797 20.2392C17.9295 19.9929 17.3138 19.7221 16.7326 19.4265C16.1514 19.131 15.6392 18.7813 15.1959 18.3774C14.7526 17.9637 14.4029 17.4662 14.1468 16.885C13.9005 16.3038 13.7774 15.6094 13.7774 14.8016C13.7774 13.6688 14.0483 12.6886 14.5901 11.8612C15.1417 11.0337 15.92 10.3934 16.9247 9.94026C17.9394 9.48713 19.1362 9.26056 20.5153 9.26056C21.4216 9.26056 22.2589 9.35907 23.0273 9.55608C23.8055 9.74325 24.5985 10.0535 25.4062 10.487Z" fill="white"/>
<path d="M25.4062 10.487L25.1348 11.688L25.9884 9.40197L25.4062 10.487ZM23.2489 9.99936L22.5179 9.00847L20.3513 10.6068L22.9774 11.2004L23.2489 9.99936ZM25.0516 8.66951V7.43817H24.6466L24.3206 7.67862L25.0516 8.66951ZM25.3767 8.66951L26.5949 8.49013L26.44 7.43817H25.3767V8.66951ZM26.3667 15.3926L26.6082 16.6001L27.7553 16.3707L27.5849 15.2133L26.3667 15.3926ZM25.7017 15.5256L24.6426 16.1537L25.0877 16.9042L25.9432 16.7331L25.7017 15.5256ZM22.9238 10.8416L23.8823 10.0686L21.8647 11.4697L22.9238 10.8416ZM23.6626 11.7577L22.9127 12.7344L24.6211 10.9847L23.6626 11.7577ZM21.9486 10.8268L21.5418 11.989L21.5505 11.9921L21.5592 11.995L21.9486 10.8268ZM17.2202 11.3588L16.4084 10.4329L16.4013 10.4392L17.2202 11.3588ZM16.6883 15.2153L15.6494 15.8764L15.6564 15.8872L16.6883 15.2153ZM17.8261 16.3088L17.1677 17.3494L17.1754 17.3542L17.1831 17.3589L17.8261 16.3088ZM19.4662 17.1067L19.0217 18.255L19.0328 18.2593L19.0439 18.2634L19.4662 17.1067ZM23.3967 18.5991L22.8935 19.7229H22.8935L23.3967 18.5991ZM25.1994 19.6925L24.4301 20.6541L24.4386 20.6607L25.1994 19.6925ZM26.5144 21.3327L25.4098 21.8767L25.4147 21.8867L25.4198 21.8966L26.5144 21.3327ZM26.0416 27.1397L27.0494 27.8472L27.0528 27.8422L26.0416 27.1397ZM23.3671 29.2674L23.8534 30.3987L23.8581 30.3967L23.3671 29.2674ZM16.8804 29.7846L17.0953 28.5721L17.0878 28.5708L17.0803 28.5696L16.8804 29.7846ZM14.4423 29.0901L13.2438 29.3725L13.3914 29.9987L13.9896 30.2352L14.4423 29.0901ZM13.1716 23.6968V22.4655H11.6164L11.9731 23.9792L13.1716 23.6968ZM13.9547 23.6968L14.9652 22.9931L14.5977 22.4655H13.9547V23.6968ZM17.7522 29.1492L17.0919 30.1885L18.7626 28.4455L17.7522 29.1492ZM15.0777 27.45L15.6607 26.3654L14.4174 28.4893L15.0777 27.45ZM17.1907 28.3956L16.8013 29.5638L16.8123 29.5675L16.8234 29.5709L17.1907 28.3956ZM21.9929 28.2626L22.4269 29.415L21.9929 28.2626ZM23.7217 26.9919L22.7138 26.2846L23.7217 26.9919ZM23.7956 23.0467L22.7803 23.7435L22.7869 23.7528L23.7956 23.0467ZM22.4214 21.8055L21.8045 22.8712L21.8125 22.8757L22.4214 21.8055ZM20.5744 20.9632L20.9842 19.8021L20.9842 19.8021L20.5744 20.9632ZM18.5797 20.2392L18.1435 21.3907L18.1492 21.3929L18.5797 20.2392ZM16.7326 19.4265L16.1745 20.5241L16.1745 20.5241L16.7326 19.4265ZM15.1959 18.3774L14.3558 19.2776L14.3612 19.2826L14.3666 19.2876L15.1959 18.3774ZM14.1468 16.885L13.0131 17.3654L13.0165 17.3735L13.02 17.3816L14.1468 16.885ZM14.5901 11.8612L13.5655 11.1781L13.5599 11.1866L14.5901 11.8612ZM16.9247 9.94026L16.4226 8.81594L16.4185 8.81778L16.9247 9.94026ZM23.0273 9.55608L22.7214 10.7488L22.7304 10.7511L22.7393 10.7533L23.0273 9.55608ZM25.6777 9.28593L23.5204 8.79832L22.9774 11.2004L25.1348 11.688L25.6777 9.28593ZM23.9799 10.9903L25.7826 9.6604L24.3206 7.67862L22.5179 9.00847L23.9799 10.9903ZM25.0516 9.90086H25.3767V7.43817H25.0516V9.90086ZM24.1585 8.8489L25.1485 15.572L27.5849 15.2133L26.5949 8.49013L24.1585 8.8489ZM26.1252 14.1852L25.4603 14.3182L25.9432 16.7331L26.6082 16.6001L26.1252 14.1852ZM26.7608 14.8975L23.9829 10.2135L21.8647 11.4697L24.6426 16.1537L26.7608 14.8975ZM21.9653 11.6146L22.7041 12.5307L24.6211 10.9847L23.8823 10.0686L21.9653 11.6146ZM24.4126 10.7811C23.7648 10.2837 23.0732 9.90375 22.338 9.65867L21.5592 11.995C22.0061 12.1439 22.4572 12.3846 22.9127 12.7344L24.4126 10.7811ZM22.3554 9.66461C21.6267 9.40957 20.863 9.28519 20.072 9.28519V11.7479C20.6011 11.7479 21.0885 11.8304 21.5418 11.989L22.3554 9.66461ZM20.072 9.28519C18.6523 9.28519 17.3599 9.59855 16.4084 10.433L18.0321 12.2846C18.3612 11.996 18.97 11.7479 20.072 11.7479V9.28519ZM16.4013 10.4392C15.4783 11.2613 15.0432 12.3602 15.0432 13.6047H17.5059C17.5059 12.9776 17.7013 12.5792 18.0392 12.2783L16.4013 10.4392ZM15.0432 13.6047C15.0432 14.4217 15.2202 15.2019 15.6495 15.8764L17.7271 14.5543C17.6047 14.3619 17.5059 14.0684 17.5059 13.6047H15.0432ZM15.6564 15.8872C16.0407 16.4773 16.555 16.9617 17.1677 17.3494L18.4844 15.2682C18.1318 15.0451 17.8876 14.8005 17.7202 14.5434L15.6564 15.8872ZM17.1831 17.3589C17.7378 17.6985 18.3525 17.9959 19.0217 18.255L19.9107 15.9584C19.3585 15.7446 18.8797 15.5101 18.469 15.2586L17.1831 17.3589ZM19.0439 18.2634C19.669 18.4915 20.3184 18.7245 20.9921 18.9623L21.8117 16.64C21.1457 16.405 20.5047 16.175 19.8885 15.95L19.0439 18.2634ZM20.9921 18.9623C21.6297 19.1874 22.2635 19.4408 22.8935 19.7229L23.8999 17.4752C23.2098 17.1663 22.5137 16.8878 21.8117 16.64L20.9921 18.9623ZM22.8935 19.7229C23.4623 19.9776 23.9732 20.2884 24.4301 20.654L25.9686 18.731C25.342 18.2297 24.651 17.8116 23.8999 17.4752L22.8935 19.7229ZM24.4386 20.6607C24.8383 20.9747 25.1621 21.3738 25.4098 21.8767L27.6191 20.7886C27.2166 19.9715 26.6637 19.2771 25.9601 18.7243L24.4386 20.6607ZM25.4198 21.8966C25.6408 22.3256 25.7855 22.9264 25.7855 23.7559H28.2482C28.2482 22.6547 28.0579 21.64 27.6091 20.7687L25.4198 21.8966ZM25.7855 23.7559C25.7855 24.8658 25.5155 25.7388 25.0303 26.4371L27.0528 27.8422C27.868 26.6689 28.2482 25.2861 28.2482 23.7559H25.7855ZM25.0338 26.4321C24.5257 27.1558 23.8209 27.7274 22.8761 28.1382L23.8581 30.3967C25.179 29.8224 26.2572 28.9755 27.0493 27.8472L25.0338 26.4321ZM22.8809 28.1362C21.9362 28.5422 20.8255 28.7601 19.5253 28.7601V31.2228C21.1016 31.2228 22.5521 30.958 23.8534 30.3987L22.8809 28.1362ZM19.5253 28.7601C18.5955 28.7601 17.7877 28.6949 17.0953 28.5721L16.6655 30.997C17.5295 31.1501 18.485 31.2228 19.5253 31.2228V28.7601ZM17.0803 28.5696C16.4007 28.4578 15.6729 28.2526 14.8951 27.945L13.9896 30.2352C14.9061 30.5975 15.8036 30.8553 16.6805 30.9996L17.0803 28.5696ZM15.6409 28.8077L14.3701 23.4144L11.9731 23.9792L13.2438 29.3725L15.6409 28.8077ZM13.1716 24.9282H13.9547V22.4655H13.1716V24.9282ZM12.9443 24.4006L16.7418 29.853L18.7626 28.4455L14.9652 22.9931L12.9443 24.4006ZM18.4125 28.1099L15.738 26.4107L14.4174 28.4893L17.0919 30.1885L18.4125 28.1099ZM14.4947 28.5346C15.324 28.9803 16.0947 29.3282 16.8013 29.5638L17.5801 27.2275C17.0455 27.0493 16.4076 26.7668 15.6607 26.3654L14.4947 28.5346ZM16.8234 29.5709C17.5812 29.8077 18.3756 29.9225 19.2002 29.9225V27.4598C18.6064 27.4598 18.0611 27.3776 17.558 27.2203L16.8234 29.5709ZM19.2002 29.9225C20.4018 29.9225 21.4895 29.768 22.4269 29.415L21.5589 27.1103C20.9793 27.3286 20.2053 27.4598 19.2002 27.4598V29.9225ZM22.4269 29.415C23.3741 29.0582 24.1691 28.498 24.7297 27.6992L22.7138 26.2846C22.4863 26.6088 22.1288 26.8957 21.5589 27.1103L22.4269 29.415ZM24.7297 27.6992C25.2969 26.8909 25.5441 25.9359 25.5441 24.9085H23.0814C23.0814 25.536 22.9346 25.97 22.7138 26.2846L24.7297 27.6992ZM25.5441 24.9085C25.5441 23.9696 25.3261 23.0859 24.8044 22.3406L22.7869 23.7528C22.9547 23.9925 23.0814 24.35 23.0814 24.9085H25.5441ZM24.8109 22.3499C24.3525 21.682 23.7507 21.1451 23.0304 20.7352L21.8125 22.8757C22.2349 23.1161 22.5492 23.4066 22.7804 23.7434L24.8109 22.3499ZM23.0384 20.7398C22.4051 20.3732 21.7192 20.0615 20.9842 19.8021L20.1646 22.1244C20.7693 22.3378 21.3148 22.5876 21.8045 22.8711L23.0384 20.7398ZM20.9842 19.8021C20.3212 19.5681 19.6632 19.3293 19.0101 19.0856L18.1492 21.3929C18.8161 21.6417 19.4879 21.8856 20.1646 22.1244L20.9842 19.8021ZM19.0158 19.0877C18.4045 18.8562 17.8298 18.603 17.2907 18.3289L16.1745 20.5241C16.7979 20.8411 17.4545 21.1297 18.1435 21.3907L19.0158 19.0877ZM17.2907 18.3289C16.7994 18.0791 16.3801 17.7906 16.0252 17.4672L14.3666 19.2876C14.8983 19.772 15.5035 20.1829 16.1745 20.5241L17.2907 18.3289ZM16.0361 17.4772C15.7204 17.1826 15.4657 16.8245 15.2736 16.3885L13.02 17.3816C13.3401 18.108 13.7848 18.7447 14.3558 19.2776L16.0361 17.4772ZM15.2806 16.4046C15.114 16.0115 15.0088 15.4886 15.0088 14.8016H12.5461C12.5461 15.7301 12.6871 16.5962 13.0131 17.3654L15.2806 16.4046ZM15.0088 14.8016C15.0088 13.8726 15.2281 13.1347 15.6203 12.5357L13.5599 11.1866C12.8686 12.2426 12.5461 13.4649 12.5461 14.8016H15.0088ZM15.6146 12.5442C16.0245 11.9293 16.6132 11.4315 17.4309 11.0627L16.4185 8.81778C15.2267 9.35526 14.259 10.138 13.5656 11.1781L15.6146 12.5442ZM17.4268 11.0646C18.2502 10.6968 19.2687 10.4919 20.5153 10.4919V8.02922C19.0037 8.02922 17.6285 8.2774 16.4226 8.81595L17.4268 11.0646ZM20.5153 10.4919C21.3328 10.4919 22.066 10.5808 22.7214 10.7488L23.3331 8.36332C22.4518 8.13735 21.5104 8.02922 20.5153 8.02922V10.4919ZM22.7393 10.7533C23.4015 10.9125 24.096 11.1813 24.824 11.572L25.9884 9.40197C25.1009 8.92576 24.2095 8.57396 23.3152 8.35888L22.7393 10.7533Z" fill="#669999" mask="url(#path-3-outside-1_186_18)"/>
</g>
<defs>
<filter id="filter0_d_186_18" x="9.06093" y="5.73453" width="23.4463" height="30.5992" filterUnits="userSpaceOnUse" color-interpolation-filters="sRGB">
<feFlood flood-opacity="0" result="BackgroundImageFix"/>
<feColorMatrix in="SourceAlpha" type="matrix" values="0 0 0 0 0 0 0 0 0 0 0 0 0 0 0 0 0 0 127 0" result="hardAlpha"/>
<feOffset dx="0.851822" dy="1.70364"/>
<feGaussianBlur stdDeviation="1.70364"/>
<feComposite in2="hardAlpha" operator="out"/>
<feColorMatrix type="matrix" values="0 0 0 0 0 0 0 0 0 0 0 0 0 0 0 0 0 0 0.25 0"/>
<feBlend mode="normal" in2="BackgroundImageFix" result="effect1_dropShadow_186_18"/>
<feBlend mode="normal" in="SourceGraphic" in2="effect1_dropShadow_186_18" result="shape"/>
</filter>
</defs>
</svg>
